<mxfile host="65bd71144e">
    <diagram id="0Rk23NjgDeTyCK7oHo9y" name="Page-1">
        <mxGraphModel dx="-11" dy="-1716" grid="1" gridSize="10" guides="1" tooltips="1" connect="1" arrows="1" fold="1" page="1" pageScale="1" pageWidth="850" pageHeight="1100" math="0" shadow="0">
            <root>
                <mxCell id="0"/>
                <mxCell id="1" parent="0"/>
                <mxCell id="25" value="" style="html=1;shadow=0;dashed=0;shape=mxgraph.bootstrap.rect;fillColor=#222222;strokeColor=none;whiteSpace=wrap;rounded=0;fontSize=12;fontColor=#000000;align=center;movable=1;resizable=1;rotatable=1;deletable=1;editable=1;locked=0;connectable=1;" parent="1" vertex="1">
                    <mxGeometry x="1130" y="3325" width="1060" height="63" as="geometry"/>
                </mxCell>
                <mxCell id="26" value="Atlas" style="html=1;shadow=0;dashed=0;fillColor=#000000;strokeColor=none;shape=mxgraph.bootstrap.rect;fontColor=#FFFFFF;fontSize=14;whiteSpace=wrap;movable=1;resizable=1;rotatable=1;deletable=1;editable=1;locked=0;connectable=1;" parent="25" vertex="1">
                    <mxGeometry width="105.99971512260032" height="40" as="geometry"/>
                </mxCell>
                <mxCell id="27" value="" style="strokeWidth=1;html=1;shadow=0;dashed=0;shape=mxgraph.android.rrect;rSize=0;fillColor=#444444;strokeColor=none;movable=1;resizable=1;rotatable=1;deletable=1;editable=1;locked=0;connectable=1;" parent="25" vertex="1">
                    <mxGeometry x="0.0028487739969868925" y="43" width="1059.9971512260029" height="20" as="geometry"/>
                </mxCell>
                <mxCell id="28" value="" style="strokeWidth=1;html=1;shadow=0;dashed=0;shape=mxgraph.android.anchor;fontStyle=1;fontColor=#ffffff;movable=1;resizable=1;rotatable=1;deletable=1;editable=1;locked=0;connectable=1;" parent="27" vertex="1">
                    <mxGeometry x="21.840600643392914" width="65.72564753618376" height="20" as="geometry"/>
                </mxCell>
                <mxCell id="29" value="Bike Test RFP" style="strokeWidth=1;html=1;shadow=0;dashed=0;shape=mxgraph.android.anchor;fontStyle=0;fontColor=#808080;strokeColor=#000000;movable=1;resizable=1;rotatable=1;deletable=1;editable=1;locked=0;connectable=1;" parent="27" vertex="1">
                    <mxGeometry x="-0.002847125649751092" width="182.27342317821052" height="20" as="geometry"/>
                </mxCell>
                <mxCell id="30" value="Project 2" style="strokeWidth=1;html=1;shadow=0;dashed=0;shape=mxgraph.android.anchor;fontStyle=0;fontColor=#808080;strokeColor=#000000;movable=1;resizable=1;rotatable=1;deletable=1;editable=1;locked=0;connectable=1;" parent="27" vertex="1">
                    <mxGeometry x="173.9771528743503" width="182.27342317821052" height="20" as="geometry"/>
                </mxCell>
                <mxCell id="31" value="" style="shape=mxgraph.sysml.x;fontColor=#FFFFFF;strokeColor=#FFFFFF;aspect=fixed;" parent="27" vertex="1">
                    <mxGeometry x="194.99715122600298" y="5" width="10" height="10" as="geometry"/>
                </mxCell>
                <mxCell id="32" value="" style="shape=mxgraph.sysml.x;fontColor=#FFFFFF;strokeColor=#FFFFFF;aspect=fixed;" parent="27" vertex="1">
                    <mxGeometry x="368.997151226003" y="5" width="10" height="10" as="geometry"/>
                </mxCell>
                <mxCell id="33" value="Structures" style="html=1;shadow=0;dashed=0;shape=mxgraph.bootstrap.rect;fillColor=none;strokeColor=none;fontColor=#808080;spacingRight=30;whiteSpace=wrap;movable=1;resizable=1;rotatable=1;deletable=1;editable=1;locked=0;connectable=1;" parent="25" vertex="1">
                    <mxGeometry x="105.99971512260032" width="119.24967951292534" height="40" as="geometry"/>
                </mxCell>
                <mxCell id="34" value="" style="strokeWidth=1;html=1;shadow=0;dashed=0;shape=mxgraph.android.rrect;rSize=0;fillColor=#FF0000;strokeColor=none;movable=1;resizable=1;rotatable=1;deletable=1;editable=1;locked=0;connectable=1;" parent="25" vertex="1">
                    <mxGeometry x="0.0028487739970159964" y="40" width="100" height="2" as="geometry"/>
                </mxCell>
                <mxCell id="35" value="" style="shape=image;verticalLabelPosition=bottom;labelBackgroundColor=default;verticalAlign=top;aspect=fixed;imageAspect=0;image=data:image/svg+xml,PHN2ZyB4bWxucz0iaHR0cDovL3d3dy53My5vcmcvMjAwMC9zdmciIHZpZXdCb3g9IjAgMCA1MTIgNTEyIj48cGF0aCBkPSJNNDA2LjUgMzk5LjZDMzg3LjQgMzUyLjkgMzQxLjUgMzIwIDI4OCAzMjBsLTY0IDBjLTUzLjUgMC05OS40IDMyLjktMTE4LjUgNzkuNkM2OS45IDM2Mi4yIDQ4IDMxMS43IDQ4IDI1NkM0OCAxNDEuMSAxNDEuMSA0OCAyNTYgNDhzMjA4IDkzLjEgMjA4IDIwOGMwIDU1LjctMjEuOSAxMDYuMi01Ny41IDE0My42em0tNDAuMSAzMi43QzMzNC40IDQ1Mi40IDI5Ni42IDQ2NCAyNTYgNDY0cy03OC40LTExLjYtMTEwLjUtMzEuN2M3LjMtMzYuNyAzOS43LTY0LjMgNzguNS02NC4zbDY0IDBjMzguOCAwIDcxLjIgMjcuNiA3OC41IDY0LjN6TTI1NiA1MTJBMjU2IDI1NiAwIDEgMCAyNTYgMGEyNTYgMjU2IDAgMSAwIDAgNTEyem0wLTI3MmE0MCA0MCAwIDEgMSAwLTgwIDQwIDQwIDAgMSAxIDAgODB6bS04OC00MGE4OCA4OCAwIDEgMCAxNzYgMCA4OCA4OCAwIDEgMCAtMTc2IDB6IiBmaWxsPSIjOTk5OTk5Ii8+PC9zdmc+;" parent="25" vertex="1">
                    <mxGeometry x="985" y="12.5" width="20" height="20" as="geometry"/>
                </mxCell>
                <mxCell id="36" value="" style="shape=image;verticalLabelPosition=bottom;labelBackgroundColor=default;verticalAlign=top;aspect=fixed;imageAspect=0;image=data:image/svg+xml,PHN2ZyB4bWxucz0iaHR0cDovL3d3dy53My5vcmcvMjAwMC9zdmciIHZpZXdCb3g9IjAgMCA1MTIgNTEyIj48cGF0aCBkPSJNMzc3LjkgMTA1LjlMNTAwLjcgMjI4LjdjNy4yIDcuMiAxMS4zIDE3LjEgMTEuMyAyNy4zcy00LjEgMjAuMS0xMS4zIDI3LjNMMzc3LjkgNDA2LjFjLTYuNCA2LjQtMTUgOS45LTI0IDkuOWMtMTguNyAwLTMzLjktMTUuMi0zMy45LTMzLjlsMC02Mi4xLTEyOCAwYy0xNy43IDAtMzItMTQuMy0zMi0zMmwwLTY0YzAtMTcuNyAxNC4zLTMyIDMyLTMybDEyOCAwIDAtNjIuMWMwLTE4LjcgMTUuMi0zMy45IDMzLjktMzMuOWM5IDAgMTcuNiAzLjYgMjQgOS45ek0xNjAgOTZMOTYgOTZjLTE3LjcgMC0zMiAxNC4zLTMyIDMybDAgMjU2YzAgMTcuNyAxNC4zIDMyIDMyIDMybDY0IDBjMTcuNyAwIDMyIDE0LjMgMzIgMzJzLTE0LjMgMzItMzIgMzJsLTY0IDBjLTUzIDAtOTYtNDMtOTYtOTZMMCAxMjhDMCA3NSA0MyAzMiA5NiAzMmw2NCAwYzE3LjcgMCAzMiAxNC4zIDMyIDMycy0xNC4zIDMyLTMyIDMyeiIgZmlsbD0iIzk5OTk5OSIvPjwvc3ZnPg==;" parent="25" vertex="1">
                    <mxGeometry x="1025" y="12.5" width="20" height="20" as="geometry"/>
                </mxCell>
                <mxCell id="37" value="" style="shape=table;startSize=0;container=1;collapsible=0;childLayout=tableLayout;fontSize=13;align=left;spacingLeft=5;spacing=0;" parent="1" vertex="1">
                    <mxGeometry x="1180" y="3446.5" width="790" height="90" as="geometry"/>
                </mxCell>
                <mxCell id="38" value="" style="shape=tableRow;horizontal=0;startSize=0;swimlaneHead=0;swimlaneBody=0;strokeColor=inherit;top=0;left=0;bottom=0;right=0;collapsible=0;dropTarget=0;fillColor=none;points=[[0,0.5],[1,0.5]];portConstraint=eastwest;fontSize=13;align=left;spacingLeft=5;spacing=0;" parent="37" vertex="1">
                    <mxGeometry width="790" height="30" as="geometry"/>
                </mxCell>
                <mxCell id="39" style="shape=partialRectangle;html=1;whiteSpace=wrap;connectable=0;strokeColor=inherit;overflow=hidden;fillColor=#660000;top=0;left=0;bottom=0;right=0;pointerEvents=1;fontSize=13;align=left;spacingLeft=25;spacing=0;fontColor=#FFFFFF;fontStyle=1" parent="38" vertex="1">
                    <mxGeometry width="25" height="30" as="geometry">
                        <mxRectangle width="25" height="30" as="alternateBounds"/>
                    </mxGeometry>
                </mxCell>
                <mxCell id="40" value="Structure" style="shape=partialRectangle;html=1;whiteSpace=wrap;connectable=0;strokeColor=inherit;overflow=hidden;fillColor=#660000;top=0;left=0;bottom=0;right=0;pointerEvents=1;fontSize=13;align=left;spacingLeft=25;spacing=0;fontColor=#FFFFFF;fontStyle=1" parent="38" vertex="1">
                    <mxGeometry x="25" width="145" height="30" as="geometry">
                        <mxRectangle width="145" height="30" as="alternateBounds"/>
                    </mxGeometry>
                </mxCell>
                <mxCell id="41" value="Description" style="shape=partialRectangle;html=1;whiteSpace=wrap;connectable=0;strokeColor=inherit;overflow=hidden;fillColor=#660000;top=0;left=0;bottom=0;right=0;pointerEvents=1;fontSize=13;align=left;spacingLeft=5;spacing=0;fontColor=#FFFFFF;fontStyle=1" parent="38" vertex="1">
                    <mxGeometry x="170" width="190" height="30" as="geometry">
                        <mxRectangle width="190" height="30" as="alternateBounds"/>
                    </mxGeometry>
                </mxCell>
                <mxCell id="42" value="Shared With" style="shape=partialRectangle;html=1;whiteSpace=wrap;connectable=0;strokeColor=inherit;overflow=hidden;fillColor=#660000;top=0;left=0;bottom=0;right=0;pointerEvents=1;fontSize=13;align=left;spacingLeft=5;spacing=0;fontColor=#FFFFFF;fontStyle=1" parent="38" vertex="1">
                    <mxGeometry x="360" width="110" height="30" as="geometry">
                        <mxRectangle width="110" height="30" as="alternateBounds"/>
                    </mxGeometry>
                </mxCell>
                <mxCell id="43" value="Created" style="shape=partialRectangle;html=1;whiteSpace=wrap;connectable=0;strokeColor=inherit;overflow=hidden;fillColor=#660000;top=0;left=0;bottom=0;right=0;pointerEvents=1;fontSize=13;align=left;spacingLeft=5;spacing=0;fontColor=#FFFFFF;fontStyle=1" parent="38" vertex="1">
                    <mxGeometry x="470" width="140" height="30" as="geometry">
                        <mxRectangle width="140" height="30" as="alternateBounds"/>
                    </mxGeometry>
                </mxCell>
                <mxCell id="44" value="Updated" style="shape=partialRectangle;html=1;whiteSpace=wrap;connectable=0;strokeColor=inherit;overflow=hidden;fillColor=#660000;top=0;left=0;bottom=0;right=0;pointerEvents=1;fontSize=13;align=left;spacingLeft=5;spacing=0;fontColor=#FFFFFF;fontStyle=1" parent="38" vertex="1">
                    <mxGeometry x="610" width="180" height="30" as="geometry">
                        <mxRectangle width="180" height="30" as="alternateBounds"/>
                    </mxGeometry>
                </mxCell>
                <mxCell id="45" value="" style="shape=tableRow;horizontal=0;startSize=0;swimlaneHead=0;swimlaneBody=0;strokeColor=inherit;top=0;left=0;bottom=0;right=0;collapsible=0;dropTarget=0;fillColor=none;points=[[0,0.5],[1,0.5]];portConstraint=eastwest;fontSize=13;align=left;spacingLeft=5;spacing=0;" parent="37" vertex="1">
                    <mxGeometry y="30" width="790" height="30" as="geometry"/>
                </mxCell>
                <mxCell id="46" style="shape=partialRectangle;html=1;whiteSpace=wrap;connectable=0;strokeColor=inherit;overflow=hidden;fillColor=none;top=0;left=0;bottom=0;right=0;pointerEvents=1;fontSize=13;align=left;spacingLeft=64;spacing=0;" parent="45" vertex="1">
                    <mxGeometry width="25" height="30" as="geometry">
                        <mxRectangle width="25" height="30" as="alternateBounds"/>
                    </mxGeometry>
                </mxCell>
                <mxCell id="47" value="Bike Test RFP" style="shape=partialRectangle;html=1;whiteSpace=wrap;connectable=0;strokeColor=inherit;overflow=hidden;fillColor=none;top=0;left=0;bottom=0;right=0;pointerEvents=1;fontSize=13;align=left;spacingLeft=15;spacing=0;" parent="45" vertex="1">
                    <mxGeometry x="25" width="145" height="30" as="geometry">
                        <mxRectangle width="145" height="30" as="alternateBounds"/>
                    </mxGeometry>
                </mxCell>
                <mxCell id="48" value="First Project" style="shape=partialRectangle;html=1;whiteSpace=wrap;connectable=0;strokeColor=inherit;overflow=hidden;fillColor=none;top=0;left=0;bottom=0;right=0;pointerEvents=1;fontSize=13;align=left;spacingLeft=5;spacing=0;" parent="45" vertex="1">
                    <mxGeometry x="170" width="190" height="30" as="geometry">
                        <mxRectangle width="190" height="30" as="alternateBounds"/>
                    </mxGeometry>
                </mxCell>
                <mxCell id="49" style="shape=partialRectangle;html=1;whiteSpace=wrap;connectable=0;strokeColor=inherit;overflow=hidden;fillColor=none;top=0;left=0;bottom=0;right=0;pointerEvents=1;fontSize=13;align=left;spacingLeft=5;spacing=0;" parent="45" vertex="1">
                    <mxGeometry x="360" width="110" height="30" as="geometry">
                        <mxRectangle width="110" height="30" as="alternateBounds"/>
                    </mxGeometry>
                </mxCell>
                <mxCell id="50" value="dd-mm-yy hh:mm" style="shape=partialRectangle;html=1;whiteSpace=wrap;connectable=0;strokeColor=inherit;overflow=hidden;fillColor=none;top=0;left=0;bottom=0;right=0;pointerEvents=1;fontSize=13;align=left;spacingLeft=5;spacing=0;" parent="45" vertex="1">
                    <mxGeometry x="470" width="140" height="30" as="geometry">
                        <mxRectangle width="140" height="30" as="alternateBounds"/>
                    </mxGeometry>
                </mxCell>
                <mxCell id="51" value="dd-mm-yy hh:mm" style="shape=partialRectangle;html=1;whiteSpace=wrap;connectable=0;strokeColor=inherit;overflow=hidden;fillColor=none;top=0;left=0;bottom=0;right=0;pointerEvents=1;fontSize=13;align=left;spacingLeft=5;spacing=0;" parent="45" vertex="1">
                    <mxGeometry x="610" width="180" height="30" as="geometry">
                        <mxRectangle width="180" height="30" as="alternateBounds"/>
                    </mxGeometry>
                </mxCell>
                <mxCell id="52" value="" style="shape=tableRow;horizontal=0;startSize=0;swimlaneHead=0;swimlaneBody=0;strokeColor=inherit;top=0;left=0;bottom=0;right=0;collapsible=0;dropTarget=0;fillColor=none;points=[[0,0.5],[1,0.5]];portConstraint=eastwest;fontSize=13;align=left;spacingLeft=5;spacing=0;" parent="37" vertex="1">
                    <mxGeometry y="60" width="790" height="30" as="geometry"/>
                </mxCell>
                <mxCell id="53" style="shape=partialRectangle;html=1;whiteSpace=wrap;connectable=0;strokeColor=inherit;overflow=hidden;fillColor=none;top=0;left=0;bottom=0;right=0;pointerEvents=1;fontSize=13;align=left;spacingLeft=64;spacing=0;" parent="52" vertex="1">
                    <mxGeometry width="25" height="30" as="geometry">
                        <mxRectangle width="25" height="30" as="alternateBounds"/>
                    </mxGeometry>
                </mxCell>
                <mxCell id="54" value="Project 2" style="shape=partialRectangle;html=1;whiteSpace=wrap;connectable=0;strokeColor=inherit;overflow=hidden;fillColor=none;top=0;left=0;bottom=0;right=0;pointerEvents=1;fontSize=13;align=left;spacingLeft=15;spacing=0;" parent="52" vertex="1">
                    <mxGeometry x="25" width="145" height="30" as="geometry">
                        <mxRectangle width="145" height="30" as="alternateBounds"/>
                    </mxGeometry>
                </mxCell>
                <mxCell id="55" value="Another Project Structure" style="shape=partialRectangle;html=1;whiteSpace=wrap;connectable=0;strokeColor=inherit;overflow=hidden;fillColor=none;top=0;left=0;bottom=0;right=0;pointerEvents=1;fontSize=13;align=left;spacingLeft=5;spacing=0;" parent="52" vertex="1">
                    <mxGeometry x="170" width="190" height="30" as="geometry">
                        <mxRectangle width="190" height="30" as="alternateBounds"/>
                    </mxGeometry>
                </mxCell>
                <mxCell id="56" style="shape=partialRectangle;html=1;whiteSpace=wrap;connectable=0;strokeColor=inherit;overflow=hidden;fillColor=none;top=0;left=0;bottom=0;right=0;pointerEvents=1;fontSize=13;align=left;spacingLeft=5;spacing=0;" parent="52" vertex="1">
                    <mxGeometry x="360" width="110" height="30" as="geometry">
                        <mxRectangle width="110" height="30" as="alternateBounds"/>
                    </mxGeometry>
                </mxCell>
                <mxCell id="57" value="dd-mm-yy hh:mm" style="shape=partialRectangle;html=1;whiteSpace=wrap;connectable=0;strokeColor=inherit;overflow=hidden;fillColor=none;top=0;left=0;bottom=0;right=0;pointerEvents=1;fontSize=13;align=left;spacingLeft=5;spacing=0;" parent="52" vertex="1">
                    <mxGeometry x="470" width="140" height="30" as="geometry">
                        <mxRectangle width="140" height="30" as="alternateBounds"/>
                    </mxGeometry>
                </mxCell>
                <mxCell id="58" value="dd-mm-yy hh:mm" style="shape=partialRectangle;html=1;whiteSpace=wrap;connectable=0;strokeColor=inherit;overflow=hidden;fillColor=none;top=0;left=0;bottom=0;right=0;pointerEvents=1;fontSize=13;align=left;spacingLeft=5;spacing=0;" parent="52" vertex="1">
                    <mxGeometry x="610" width="180" height="30" as="geometry">
                        <mxRectangle width="180" height="30" as="alternateBounds"/>
                    </mxGeometry>
                </mxCell>
                <mxCell id="59" value="&lt;h1 style=&quot;margin-top: 0px;&quot;&gt;Inventory&lt;/h1&gt;" style="text;html=1;whiteSpace=wrap;overflow=hidden;rounded=0;" parent="1" vertex="1">
                    <mxGeometry x="1130" y="3280" width="270" height="41" as="geometry"/>
                </mxCell>
                <mxCell id="60" value="" style="rounded=0;whiteSpace=wrap;html=1;strokeColor=#660000;aspect=fixed;" parent="1" vertex="1">
                    <mxGeometry x="1187" y="3425.5" width="10" height="10" as="geometry"/>
                </mxCell>
                <mxCell id="61" value="" style="rounded=0;whiteSpace=wrap;html=1;strokeColor=#660000;aspect=fixed;" parent="1" vertex="1">
                    <mxGeometry x="1187" y="3487" width="10" height="10" as="geometry"/>
                </mxCell>
                <mxCell id="62" value="" style="rounded=0;whiteSpace=wrap;html=1;strokeColor=#660000;aspect=fixed;" parent="1" vertex="1">
                    <mxGeometry x="1187" y="3518.5" width="10" height="10" as="geometry"/>
                </mxCell>
                <mxCell id="63" value="Action" style="html=1;shadow=0;dashed=0;shape=mxgraph.bootstrap.rrect;rSize=5;strokeColor=none;strokeWidth=1;fillColor=#660000;fontColor=#ffffff;whiteSpace=wrap;align=left;verticalAlign=middle;fontStyle=0;fontSize=12;spacingLeft=10;spacingRight=20;" parent="1" vertex="1">
                    <mxGeometry x="1220" y="3416.5" width="125" height="25" as="geometry"/>
                </mxCell>
                <mxCell id="64" value="" style="shape=triangle;direction=south;fillColor=#ffffff;strokeColor=none;perimeter=none;" parent="63" vertex="1">
                    <mxGeometry x="1" y="0.5" width="10" height="5" relative="1" as="geometry">
                        <mxPoint x="-17" y="-2.5" as="offset"/>
                    </mxGeometry>
                </mxCell>
                <mxCell id="65" value="&lt;font style=&quot;font-size: 10px;&quot;&gt;DG&lt;/font&gt;" style="rounded=1;whiteSpace=wrap;html=1;arcSize=50;strokeColor=none;strokeWidth=1;fillColor=#4C0099;fontColor=#FFFFFF;whiteSpace=wrap;align=left;verticalAlign=middle;spacingLeft=0;fontStyle=1;fontSize=10;spacing=10;" parent="1" vertex="1">
                    <mxGeometry x="1560" y="3483.5" width="33" height="17" as="geometry"/>
                </mxCell>
                <mxCell id="66" value="&lt;font style=&quot;font-size: 10px;&quot;&gt;LM&lt;/font&gt;" style="rounded=1;whiteSpace=wrap;html=1;arcSize=50;strokeColor=none;strokeWidth=1;fillColor=#4D4D4D;fontColor=#FFFFFF;whiteSpace=wrap;align=left;verticalAlign=middle;spacingLeft=0;fontStyle=1;fontSize=10;spacing=10;" parent="1" vertex="1">
                    <mxGeometry x="1597" y="3483.5" width="33" height="17" as="geometry"/>
                </mxCell>
                <mxCell id="110" value="Structures" style="text;html=1;strokeColor=none;fillColor=none;align=center;verticalAlign=middle;whiteSpace=wrap;rounded=0;fontColor=#999999;" parent="1" vertex="1">
                    <mxGeometry x="1140" y="3390" width="60" height="30" as="geometry"/>
                </mxCell>
                <mxCell id="112" value="Connect Structures" style="swimlane;whiteSpace=wrap;html=1;shadow=0;dashed=0;strokeWidth=1;align=center;verticalAlign=top;fontFamily=Helvetica;fontSize=12;fontColor=#FFFFFF;fillColor=#660000;movable=1;resizable=1;rotatable=1;deletable=1;editable=1;locked=0;connectable=1;strokeColor=#666666;swimlaneFillColor=#FFFFFF;" vertex="1" parent="1">
                    <mxGeometry x="1370" y="3567.5" width="400" height="160" as="geometry"/>
                </mxCell>
                <mxCell id="113" value="UberBike" style="html=1;shadow=0;dashed=0;shape=mxgraph.bootstrap.rrect;rSize=5;strokeColor=none;strokeWidth=1;fillColor=#6C767D;fontColor=#ffffff;whiteSpace=wrap;align=left;verticalAlign=middle;fontStyle=0;fontSize=12;spacingLeft=20;spacingRight=20;" vertex="1" parent="112">
                    <mxGeometry x="10.77" y="69" width="189.23" height="25" as="geometry"/>
                </mxCell>
                <mxCell id="114" value="" style="shape=image;verticalLabelPosition=bottom;labelBackgroundColor=default;verticalAlign=top;aspect=fixed;imageAspect=0;image=data:image/svg+xml,PHN2ZyB4bWxucz0iaHR0cDovL3d3dy53My5vcmcvMjAwMC9zdmciIHZpZXdCb3g9IjAgMCA0NDggNTEyIj48cGF0aCBkPSJNMzg0IDgwYzguOCAwIDE2IDcuMiAxNiAxNmwwIDMyMGMwIDguOC03LjIgMTYtMTYgMTZMNjQgNDMyYy04LjggMC0xNi03LjItMTYtMTZMNDggOTZjMC04LjggNy4yLTE2IDE2LTE2bDMyMCAwek02NCAzMkMyOC43IDMyIDAgNjAuNyAwIDk2TDAgNDE2YzAgMzUuMyAyOC43IDY0IDY0IDY0bDMyMCAwYzM1LjMgMCA2NC0yOC43IDY0LTY0bDAtMzIwYzAtMzUuMy0yOC43LTY0LTY0LTY0TDY0IDMyeiIgZmlsbD0iI2ZmZmZmZiIvPjwvc3ZnPg==;" vertex="1" parent="112">
                    <mxGeometry x="15.766496076046565" y="74" width="13.13" height="15" as="geometry"/>
                </mxCell>
                <mxCell id="115" value="" style="shape=image;verticalLabelPosition=bottom;labelBackgroundColor=default;verticalAlign=top;aspect=fixed;imageAspect=0;image=data:image/svg+xml,PHN2ZyB4bWxucz0iaHR0cDovL3d3dy53My5vcmcvMjAwMC9zdmciIHZpZXdCb3g9IjAgMCA0NDggNTEyIj48cGF0aCBkPSJNMzg0IDgwYzguOCAwIDE2IDcuMiAxNiAxNmwwIDMyMGMwIDguOC03LjIgMTYtMTYgMTZMNjQgNDMyYy04LjggMC0xNi03LjItMTYtMTZMNDggOTZjMC04LjggNy4yLTE2IDE2LTE2bDMyMCAwek02NCAzMkMyOC43IDMyIDAgNjAuNyAwIDk2TDAgNDE2YzAgMzUuMyAyOC43IDY0IDY0IDY0bDMyMCAwYzM1LjMgMCA2NC0yOC43IDY0LTY0bDAtMzIwYzAtMzUuMy0yOC43LTY0LTY0LTY0TDY0IDMyeiIgZmlsbD0iI2ZmZmZmZiIvPjwvc3ZnPg==;" vertex="1" parent="112">
                    <mxGeometry x="37.766496076046565" y="104" width="13.13" height="15" as="geometry"/>
                </mxCell>
                <mxCell id="116" value="" style="shape=image;verticalLabelPosition=bottom;labelBackgroundColor=default;verticalAlign=top;aspect=fixed;imageAspect=0;image=data:image/svg+xml,PHN2ZyB4bWxucz0iaHR0cDovL3d3dy53My5vcmcvMjAwMC9zdmciIHZpZXdCb3g9IjAgMCA0NDggNTEyIj48cGF0aCBkPSJNMzg0IDgwYzguOCAwIDE2IDcuMiAxNiAxNmwwIDMyMGMwIDguOC03LjIgMTYtMTYgMTZMNjQgNDMyYy04LjggMC0xNi03LjItMTYtMTZMNDggOTZjMC04LjggNy4yLTE2IDE2LTE2bDMyMCAwek02NCAzMkMyOC43IDMyIDAgNjAuNyAwIDk2TDAgNDE2YzAgMzUuMyAyOC43IDY0IDY0IDY0bDMyMCAwYzM1LjMgMCA2NC0yOC43IDY0LTY0bDAtMzIwYzAtMzUuMy0yOC43LTY0LTY0LTY0TDY0IDMyeiIgZmlsbD0iI2ZmZmZmZiIvPjwvc3ZnPg==;" vertex="1" parent="112">
                    <mxGeometry x="37.766496076046565" y="134.01999999999998" width="13.13" height="15" as="geometry"/>
                </mxCell>
                <mxCell id="117" value="Testing (1.2.4)" style="html=1;shadow=0;dashed=0;shape=mxgraph.bootstrap.rrect;rSize=5;strokeColor=none;strokeWidth=1;fillColor=#6C767D;fontColor=#ffffff;whiteSpace=wrap;align=left;verticalAlign=middle;fontStyle=0;fontSize=12;spacingLeft=5;spacingRight=20;" vertex="1" parent="112">
                    <mxGeometry x="210" y="69" width="170" height="25" as="geometry"/>
                </mxCell>
                <mxCell id="118" value="" style="shape=triangle;direction=south;fillColor=#ffffff;strokeColor=none;perimeter=none;" vertex="1" parent="117">
                    <mxGeometry x="1" y="0.5" width="10" height="5" relative="1" as="geometry">
                        <mxPoint x="-16" y="-1" as="offset"/>
                    </mxGeometry>
                </mxCell>
                <mxCell id="119" value="Component Test Template" style="html=1;shadow=0;dashed=0;shape=mxgraph.bootstrap.rrect;rSize=5;strokeColor=none;strokeWidth=1;fillColor=#6C767D;fontColor=#ffffff;whiteSpace=wrap;align=left;verticalAlign=middle;fontStyle=0;fontSize=12;spacingLeft=20;spacingRight=20;" vertex="1" parent="112">
                    <mxGeometry x="10.77" y="100" width="189.23" height="25" as="geometry"/>
                </mxCell>
                <mxCell id="120" value="Testing (1.6)" style="html=1;shadow=0;dashed=0;shape=mxgraph.bootstrap.rrect;rSize=5;strokeColor=none;strokeWidth=1;fillColor=#6C767D;fontColor=#ffffff;whiteSpace=wrap;align=left;verticalAlign=middle;fontStyle=0;fontSize=12;spacingLeft=5;spacingRight=20;" vertex="1" parent="112">
                    <mxGeometry x="210" y="100" width="170" height="25" as="geometry"/>
                </mxCell>
                <mxCell id="121" value="" style="shape=triangle;direction=south;fillColor=#ffffff;strokeColor=none;perimeter=none;" vertex="1" parent="120">
                    <mxGeometry x="1" y="0.5" width="10" height="5" relative="1" as="geometry">
                        <mxPoint x="-16" y="-1" as="offset"/>
                    </mxGeometry>
                </mxCell>
                <mxCell id="122" value="" style="shape=image;verticalLabelPosition=bottom;labelBackgroundColor=default;verticalAlign=top;aspect=fixed;imageAspect=0;image=data:image/svg+xml,PHN2ZyB4bWxucz0iaHR0cDovL3d3dy53My5vcmcvMjAwMC9zdmciIHZpZXdCb3g9IjAgMCA0NDggNTEyIj48cGF0aCBkPSJNMzg0IDgwYzguOCAwIDE2IDcuMiAxNiAxNmwwIDMyMGMwIDguOC03LjIgMTYtMTYgMTZMNjQgNDMyYy04LjggMC0xNi03LjItMTYtMTZMNDggOTZjMC04LjggNy4yLTE2IDE2LTE2bDMyMCAwek02NCAzMkMyOC43IDMyIDAgNjAuNyAwIDk2TDAgNDE2YzAgMzUuMyAyOC43IDY0IDY0IDY0bDMyMCAwYzM1LjMgMCA2NC0yOC43IDY0LTY0bDAtMzIwYzAtMzUuMy0yOC43LTY0LTY0LTY0TDY0IDMyeiIgZmlsbD0iI2ZmZmZmZiIvPjwvc3ZnPg==;" vertex="1" parent="112">
                    <mxGeometry x="15.766496076046565" y="105" width="13.13" height="15" as="geometry"/>
                </mxCell>
                <mxCell id="123" value="" style="group" vertex="1" connectable="0" parent="112">
                    <mxGeometry x="10" y="46.5" width="100" height="17" as="geometry"/>
                </mxCell>
                <mxCell id="124" value="" style="endArrow=none;html=1;rounded=0;fontFamily=Helvetica;fontSize=12;fontColor=default;strokeColor=#666666;" edge="1" parent="123">
                    <mxGeometry width="50" height="50" relative="1" as="geometry">
                        <mxPoint y="16.5" as="sourcePoint"/>
                        <mxPoint x="100" y="17" as="targetPoint"/>
                    </mxGeometry>
                </mxCell>
                <mxCell id="125" value="" style="shape=image;verticalLabelPosition=bottom;labelBackgroundColor=default;verticalAlign=top;aspect=fixed;imageAspect=0;image=data:image/svg+xml,PHN2ZyB4bWxucz0iaHR0cDovL3d3dy53My5vcmcvMjAwMC9zdmciIHZpZXdCb3g9IjAgMCAzODQgNTEyIj48cGF0aCBkPSJNMzQyLjYgMTUwLjZjMTIuNS0xMi41IDEyLjUtMzIuOCAwLTQ1LjNzLTMyLjgtMTIuNS00NS4zIDBMMTkyIDIxMC43IDg2LjYgMTA1LjRjLTEyLjUtMTIuNS0zMi44LTEyLjUtNDUuMyAwcy0xMi41IDMyLjggMCA0NS4zTDE0Ni43IDI1NiA0MS40IDM2MS40Yy0xMi41IDEyLjUtMTIuNSAzMi44IDAgNDUuM3MzMi44IDEyLjUgNDUuMyAwTDE5MiAzMDEuMyAyOTcuNCA0MDYuNmMxMi41IDEyLjUgMzIuOCAxMi41IDQ1LjMgMHMxMi41LTMyLjggMC00NS4zTDIzNy4zIDI1NiAzNDIuNiAxNTAuNnoiIGZpbGw9IiM2NjAwMDAiLz48L3N2Zz4=;" vertex="1" parent="123">
                    <mxGeometry x="87.71000000000004" y="1.0000000000004547" width="11.25" height="15" as="geometry"/>
                </mxCell>
                <mxCell id="126" value="" style="shape=image;verticalLabelPosition=bottom;labelBackgroundColor=default;verticalAlign=top;aspect=fixed;imageAspect=0;image=data:image/svg+xml,PHN2ZyB4bWxucz0iaHR0cDovL3d3dy53My5vcmcvMjAwMC9zdmciIHZpZXdCb3g9IjAgMCA0NDggNTEyIj48cGF0aCBkPSJNMjU2IDgwYzAtMTcuNy0xNC4zLTMyLTMyLTMycy0zMiAxNC4zLTMyIDMybDAgMTQ0TDQ4IDIyNGMtMTcuNyAwLTMyIDE0LjMtMzIgMzJzMTQuMyAzMiAzMiAzMmwxNDQgMCAwIDE0NGMwIDE3LjcgMTQuMyAzMiAzMiAzMnMzMi0xNC4zIDMyLTMybDAtMTQ0IDE0NCAwYzE3LjcgMCAzMi0xNC4zIDMyLTMycy0xNC4zLTMyLTMyLTMybC0xNDQgMCAwLTE0NHoiIGZpbGw9IiM2NjAwMDAiLz48L3N2Zz4=;" vertex="1" parent="123">
                    <mxGeometry x="68.3599999999999" y="1.0000000000004547" width="13.13" height="15" as="geometry"/>
                </mxCell>
                <mxCell id="127" value="" style="shape=image;verticalLabelPosition=bottom;labelBackgroundColor=default;verticalAlign=top;aspect=fixed;imageAspect=0;image=data:image/svg+xml,PHN2ZyB4bWxucz0iaHR0cDovL3d3dy53My5vcmcvMjAwMC9zdmciIHZpZXdCb3g9IjAgMCA0NDggNTEyIj48cGF0aCBkPSJNMzg0IDgwYzguOCAwIDE2IDcuMiAxNiAxNmwwIDMyMGMwIDguOC03LjIgMTYtMTYgMTZMNjQgNDMyYy04LjggMC0xNi03LjItMTYtMTZMNDggOTZjMC04LjggNy4yLTE2IDE2LTE2bDMyMCAwek02NCAzMkMyOC43IDMyIDAgNjAuNyAwIDk2TDAgNDE2YzAgMzUuMyAyOC43IDY0IDY0IDY0bDMyMCAwYzM1LjMgMCA2NC0yOC43IDY0LTY0bDAtMzIwYzAtMzUuMy0yOC43LTY0LTY0LTY0TDY0IDMyeiIgZmlsbD0iIzZjNzY3ZCIvPjwvc3ZnPg==;" vertex="1" parent="123">
                    <mxGeometry x="2.9600000000000364" y="-1" width="13.13" height="15" as="geometry"/>
                </mxCell>
                <mxCell id="128" value="" style="shape=image;verticalLabelPosition=bottom;labelBackgroundColor=default;verticalAlign=top;aspect=fixed;imageAspect=0;image=data:image/svg+xml,PHN2ZyB4bWxucz0iaHR0cDovL3d3dy53My5vcmcvMjAwMC9zdmciIHZpZXdCb3g9IjAgMCAzODQgNTEyIj48cGF0aCBkPSJNMzQyLjYgMTUwLjZjMTIuNS0xMi41IDEyLjUtMzIuOCAwLTQ1LjNzLTMyLjgtMTIuNS00NS4zIDBMMTkyIDIxMC43IDg2LjYgMTA1LjRjLTEyLjUtMTIuNS0zMi44LTEyLjUtNDUuMyAwcy0xMi41IDMyLjggMCA0NS4zTDE0Ni43IDI1NiA0MS40IDM2MS40Yy0xMi41IDEyLjUtMTIuNSAzMi44IDAgNDUuM3MzMi44IDEyLjUgNDUuMyAwTDE5MiAzMDEuMyAyOTcuNCA0MDYuNmMxMi41IDEyLjUgMzIuOCAxMi41IDQ1LjMgMHMxMi41LTMyLjggMC00NS4zTDIzNy4zIDI1NiAzNDIuNiAxNTAuNnoiIGZpbGw9IiM2NjAwMDAiLz48L3N2Zz4=;" vertex="1" parent="112">
                    <mxGeometry x="340" y="134.02000000000044" width="18.75" height="25" as="geometry"/>
                </mxCell>
                <mxCell id="129" value="" style="shape=image;verticalLabelPosition=bottom;labelBackgroundColor=default;verticalAlign=top;aspect=fixed;imageAspect=0;image=data:image/svg+xml,PHN2ZyB4bWxucz0iaHR0cDovL3d3dy53My5vcmcvMjAwMC9zdmciIHZpZXdCb3g9IjAgMCA0NDggNTEyIj48cGF0aCBkPSJNNDM4LjYgMTA1LjRjMTIuNSAxMi41IDEyLjUgMzIuOCAwIDQ1LjNsLTI1NiAyNTZjLTEyLjUgMTIuNS0zMi44IDEyLjUtNDUuMyAwbC0xMjgtMTI4Yy0xMi41LTEyLjUtMTIuNS0zMi44IDAtNDUuM3MzMi44LTEyLjUgNDUuMyAwTDE2MCAzMzguNyAzOTMuNCAxMDUuNGMxMi41LTEyLjUgMzIuOC0xMi41IDQ1LjMgMHoiIGZpbGw9IiM2NjAwMDAiLz48L3N2Zz4=;" vertex="1" parent="112">
                    <mxGeometry x="370.62" y="134.01999999999998" width="21.88" height="25" as="geometry"/>
                </mxCell>
                <mxCell id="139" value="Connect" style="rounded=0;whiteSpace=wrap;html=1;shadow=0;dashed=0;strokeWidth=1;align=left;verticalAlign=top;fontFamily=Helvetica;fontSize=12;fontColor=#000000;fillColor=#E6E6E6;spacingLeft=40;strokeColor=none;" vertex="1" parent="1">
                    <mxGeometry x="1170" y="3585.0000000000005" width="125" height="30" as="geometry"/>
                </mxCell>
                <mxCell id="141" value="Action" style="html=1;shadow=0;dashed=0;shape=mxgraph.bootstrap.rrect;rSize=5;strokeColor=none;strokeWidth=1;fillColor=#660000;fontColor=#ffffff;whiteSpace=wrap;align=left;verticalAlign=middle;fontStyle=0;fontSize=12;spacingLeft=10;spacingRight=20;" vertex="1" parent="1">
                    <mxGeometry x="1170" y="3560" width="125" height="25" as="geometry"/>
                </mxCell>
                <mxCell id="142" value="" style="shape=triangle;direction=south;fillColor=#ffffff;strokeColor=none;perimeter=none;" vertex="1" parent="141">
                    <mxGeometry x="1" y="0.5" width="10" height="5" relative="1" as="geometry">
                        <mxPoint x="-17" y="-2.5" as="offset"/>
                    </mxGeometry>
                </mxCell>
                <mxCell id="146" value="" style="shape=image;verticalLabelPosition=bottom;labelBackgroundColor=default;verticalAlign=top;aspect=fixed;imageAspect=0;image=data:image/svg+xml,PHN2ZyB4bWxucz0iaHR0cDovL3d3dy53My5vcmcvMjAwMC9zdmciIHZpZXdCb3g9IjAgMCA0NDggNTEyIj48cGF0aCBkPSJNODAgMTA0YTI0IDI0IDAgMSAwIDAtNDggMjQgMjQgMCAxIDAgMCA0OHptODAtMjRjMCAzMi44LTE5LjcgNjEtNDggNzMuM2wwIDg3LjhjMTguOC0xMC45IDQwLjctMTcuMSA2NC0xNy4xbDk2IDBjMzUuMyAwIDY0LTI4LjcgNjQtNjRsMC02LjdDMzA3LjcgMTQxIDI4OCAxMTIuOCAyODggODBjMC00NC4yIDM1LjgtODAgODAtODBzODAgMzUuOCA4MCA4MGMwIDMyLjgtMTkuNyA2MS00OCA3My4zbDAgNi43YzAgNzAuNy01Ny4zIDEyOC0xMjggMTI4bC05NiAwYy0zNS4zIDAtNjQgMjguNy02NCA2NGwwIDYuN2MyOC4zIDEyLjMgNDggNDAuNSA0OCA3My4zYzAgNDQuMi0zNS44IDgwLTgwIDgwcy04MC0zNS44LTgwLTgwYzAtMzIuOCAxOS43LTYxIDQ4LTczLjNsMC02LjcgMC0xOTguN0MxOS43IDE0MSAwIDExMi44IDAgODBDMCAzNS44IDM1LjggMCA4MCAwczgwIDM1LjggODAgODB6bTIzMiAwYTI0IDI0IDAgMSAwIC00OCAwIDI0IDI0IDAgMSAwIDQ4IDB6TTgwIDQ1NmEyNCAyNCAwIDEgMCAwLTQ4IDI0IDI0IDAgMSAwIDAgNDh6IiBmaWxsPSIjNjYwMDAwIi8+PC9zdmc+;" vertex="1" parent="1">
                    <mxGeometry x="1185.4399999999996" y="3592.5" width="13.13" height="15" as="geometry"/>
                </mxCell>
                <mxCell id="147" value="Bike Test RFP&amp;nbsp; &amp;nbsp; &amp;nbsp; &amp;nbsp; &amp;nbsp; &amp;nbsp; &amp;nbsp; &amp;nbsp; &amp;nbsp;&amp;gt;" style="rounded=0;whiteSpace=wrap;html=1;shadow=0;dashed=0;strokeWidth=1;align=left;verticalAlign=top;fontFamily=Helvetica;fontSize=12;fontColor=#FFFFFF;fillColor=#660000;spacingLeft=22;strokeColor=#660000;" vertex="1" parent="1">
                    <mxGeometry x="1750" y="3627.5" width="170" height="30" as="geometry"/>
                </mxCell>
                <mxCell id="148" value="None" style="rounded=0;whiteSpace=wrap;html=1;shadow=0;dashed=0;strokeWidth=1;align=left;verticalAlign=top;fontFamily=Helvetica;fontSize=12;fontColor=#000000;fillColor=#E6E6E6;spacingLeft=22;strokeColor=#E6E6E6;" vertex="1" parent="1">
                    <mxGeometry x="1750" y="3657.5" width="170" height="30" as="geometry"/>
                </mxCell>
                <mxCell id="149" value="Project 2&amp;nbsp; &amp;nbsp; &amp;nbsp; &amp;nbsp; &amp;nbsp; &amp;nbsp; &amp;nbsp; &amp;nbsp; &amp;nbsp; &amp;nbsp; &amp;nbsp; &amp;nbsp; &amp;nbsp;&amp;gt;" style="rounded=0;whiteSpace=wrap;html=1;shadow=0;dashed=0;strokeWidth=1;align=left;verticalAlign=top;fontFamily=Helvetica;fontSize=12;fontColor=#000000;fillColor=#E6E6E6;spacingLeft=22;strokeColor=#E6E6E6;" vertex="1" parent="1">
                    <mxGeometry x="1750" y="3597.5" width="170" height="30" as="geometry"/>
                </mxCell>
                <mxCell id="151" value="Integration&amp;nbsp; &amp;nbsp; &amp;nbsp; &amp;nbsp; &amp;nbsp; &amp;nbsp; &amp;nbsp; &amp;nbsp; &amp;nbsp; &amp;nbsp; &amp;nbsp; &amp;gt;" style="rounded=0;whiteSpace=wrap;html=1;shadow=0;dashed=0;strokeWidth=1;align=left;verticalAlign=top;fontFamily=Helvetica;fontSize=12;fontColor=#000000;fillColor=#E6E6E6;spacingLeft=22;strokeColor=none;" vertex="1" parent="1">
                    <mxGeometry x="1920" y="3627.5" width="170" height="30" as="geometry"/>
                </mxCell>
                <mxCell id="152" value="Concept&amp;nbsp; &amp;nbsp; &amp;nbsp; &amp;nbsp; &amp;nbsp; &amp;nbsp; &amp;nbsp; &amp;nbsp; &amp;nbsp; &amp;nbsp; &amp;nbsp; &amp;nbsp; &amp;nbsp;&amp;gt;" style="rounded=0;whiteSpace=wrap;html=1;shadow=0;dashed=0;strokeWidth=1;align=left;verticalAlign=top;fontFamily=Helvetica;fontSize=12;fontColor=#000000;fillColor=#E6E6E6;spacingLeft=22;strokeColor=none;" vertex="1" parent="1">
                    <mxGeometry x="1920" y="3657.5" width="170" height="30" as="geometry"/>
                </mxCell>
                <mxCell id="153" value="Test&amp;nbsp; &amp;nbsp; &amp;nbsp; &amp;nbsp; &amp;nbsp; &amp;nbsp; &amp;nbsp; &amp;nbsp; &amp;nbsp; &amp;nbsp; &amp;nbsp; &amp;nbsp; &amp;nbsp; &amp;nbsp; &amp;nbsp; &amp;nbsp;&amp;gt;" style="rounded=0;whiteSpace=wrap;html=1;shadow=0;dashed=0;strokeWidth=1;align=left;verticalAlign=top;fontFamily=Helvetica;fontSize=12;fontColor=#000000;fillColor=#E6E6E6;spacingLeft=22;strokeColor=none;" vertex="1" parent="1">
                    <mxGeometry x="1920" y="3687.5" width="170" height="30" as="geometry"/>
                </mxCell>
            </root>
        </mxGraphModel>
    </diagram>
</mxfile>